<?xml version="1.0" encoding="utf-8"?>
<!-- Generator: Adobe Illustrator 18.1.1, SVG Export Plug-In . SVG Version: 6.00 Build 0)  -->
<svg version="1.1" id="Layer_1" xmlns="http://www.w3.org/2000/svg" xmlns:xlink="http://www.w3.org/1999/xlink" x="0px" y="0px"
	 viewBox="0 0 792 612" enable-background="new 0 0 792 612" xml:space="preserve">
<g>
	<defs>
		
		
			<inkscape:perspective  sodipodi:type="inkscape:persp3d" inkscape:vp_x="0 : 526.18109 : 1" inkscape:vp_z="744.09448 : 526.18109 : 1" inkscape:vp_y="0 : 1000 : 0" id="perspective3109" inkscape:persp3d-origin="372.04724 : 350.78739 : 1">
			</inkscape:perspective>
		
			<inkscape:perspective  sodipodi:type="inkscape:persp3d" inkscape:vp_x="0 : 0.5 : 1" inkscape:vp_z="1 : 0.5 : 1" inkscape:vp_y="0 : 1000 : 0" id="perspective3077" inkscape:persp3d-origin="0.5 : 0.33333333 : 1">
			</inkscape:perspective>
	</defs>
	
		<sodipodi:namedview  showgrid="false" bordercolor="#666666" inkscape:cx="375" inkscape:zoom="0.35" inkscape:cy="520" borderopacity="1.0" pagecolor="#ffffff" id="base" inkscape:pageopacity="0.0" inkscape:pageshadow="2" inkscape:document-units="px" inkscape:current-layer="layer1" inkscape:window-width="550" inkscape:window-height="481" inkscape:window-y="145" inkscape:window-x="110" inkscape:window-maximized="0">
		</sodipodi:namedview>
	<g id="layer1_1_" inkscape:label="Layer 1" inkscape:groupmode="layer">
		<g id="g4861_1_" transform="translate(14.703909,171.18771)">
			
				<linearGradient id="path1070_2_" gradientUnits="userSpaceOnUse" x1="552.772" y1="192.6722" x2="552.772" y2="247.4466" gradientTransform="matrix(3.3259 0 0 -3.3259 -1679.0673 703.6352)">
				<stop  offset="0" style="stop-color:#9E0B0F"/>
				<stop  offset="1" style="stop-color:#820000"/>
			</linearGradient>
			
				<linearGradient id="path1070_3_" gradientUnits="userSpaceOnUse" x1="552.772" y1="242.9866" x2="552.772" y2="194.3708" gradientTransform="matrix(3.3259 0 0 -3.3259 -1679.0673 703.6352)">
				<stop  offset="0" style="stop-color:#9E0B0F"/>
				<stop  offset="1" style="stop-color:#820000"/>
			</linearGradient>
			
				<path id="path1070_1_" fill="url(#path1070_2_)" stroke="url(#path1070_3_)" stroke-width="0.3274" stroke-linecap="round" stroke-linejoin="round" d="
				M254.1-24.7c0,52.3-42.4,94.6-94.6,94.6c-52.3,0-94.6-42.4-94.6-94.6s42.4-94.6,94.6-94.6C211.7-119.4,254.1-77,254.1-24.7z"/>
			
				<linearGradient id="path1713_2_" gradientUnits="userSpaceOnUse" x1="464.1713" y1="4135.8457" x2="465.2167" y2="3752.5232" gradientTransform="matrix(0.5641 0 0 -0.2336 -100.6248 852.6105)">
				<stop  offset="0" style="stop-color:#FFFFFF;stop-opacity:0.6907"/>
				<stop  offset="1" style="stop-color:#FFFFFF;stop-opacity:0"/>
			</linearGradient>
			<path id="path1713_1_" sodipodi:nodetypes="cccccc" opacity="0.9" fill="url(#path1713_2_)" enable-background="new    " d="
				M228.2-49.7c22.1-0.5-6.2-61.2-67.4-61.5C93.9-111.5,80.2-56,90.8-55c0,0,18.3,2.5,35.8,7.4c28.1,7.9,62.4-6.5,75.9-8.6
				C217.6-58.6,226-48.6,228.2-49.7L228.2-49.7z"/>
			<path id="rect2723_1_" fill="#FFFFFF" stroke="#CDCCCC" stroke-width="2" d="M160.8-86.3c-19.7,0-35.5,15.8-35.5,35.4v39.4h9.9
				v-39.4c0-14.2,11.4-25.6,25.7-25.6s25.7,11.4,25.7,25.6v39.4h9.9v-39.4C196.4-70.5,180.5-86.3,160.8-86.3L160.8-86.3z"/>
			<path id="rect1941_1_" fill="#FFFFFF" stroke="#CDCCCC" stroke-width="2" d="M119.4-32.2h83c0.3,0,0.5,0.2,0.5,0.5v63.8
				c0,0.3-0.2,0.5-0.5,0.5h-83c-0.3,0-0.5-0.2-0.5-0.5v-63.8C118.9-32,119.1-32.2,119.4-32.2z"/>
		</g>
	</g>
</g>
<text transform="matrix(0.9478 -0.3187 0.3187 0.9478 268.935 205.8403)" fill="#DCAB38" font-family="'HoboStd'" font-size="107.38">Security </text>
<text transform="matrix(0.9463 -0.3233 0.3233 0.9463 305.0002 373.0002)" fill="#820000" font-family="'HoboStd'" font-size="107.3815">Agency</text>
<g>
	<path fill="none" d="M200.4,231.9c-0.9,0-1.8,0-2.7,0c-13.4,0-24.7,2.7-33.8,8c0.2,0,0.3,0,0.5,0
		C178.3,239.9,190.2,237.2,200.4,231.9z"/>
	<path fill="#820000" d="M279.8,207.1c0.8-3.7,1.2-7.2,1.2-10.6c0-6.3-2.4-11.6-7.2-15.9c-4.8-4.2-10.5-6.4-17.2-6.4
		c-7.8,0-13.5,2.1-17,6.3c-1.6,1.9-3.1,4-4.4,6.4c5.6,1.2,10.9,2.7,15.8,4.5C262.1,195.5,271.7,200.8,279.8,207.1z"/>
	<path fill="#820000" d="M235.5,242.4c-7.4-6.7-19.1-10.2-35.1-10.6c-10.1,5.3-22.1,8-35.9,8c-0.2,0-0.4,0-0.5,0
		c-1.8,1.1-3.5,2.2-5.2,3.5C148.9,251,144,260.2,144,271c0,3,0.4,5.8,1,8.4c7.1,0.7,14.6,1.1,22.5,1.1c19.3,0,36.2-2.8,50.7-8.4
		c11.2-4.3,20.8-9.7,28.9-16C243.5,250.7,239.7,246.2,235.5,242.4z"/>
	<path fill="#820000" stroke="#DCAB38" stroke-width="7" stroke-miterlimit="10" d="M109.4,216.4c-3.7-4.5-6.9-9.6-9.6-15.4
		c-6.1-13-9.1-29.4-9.1-49c0-29.4,6.8-52.1,20.5-68.1c13.7-16,32-23.9,55.1-23.9c14.5,0,26.7,3.1,36.6,9.3
		c9.9,6.2,18.5,15.6,25.8,28.1c4.4,7.6,8.4,12.9,12,16c3.6,3.1,9,4.7,16.2,4.7c6.4,0,11.9-2.2,16.5-6.7c4.5-4.5,6.8-9.6,6.8-15.5
		c0-10.7-4.7-22-14-34c-9.3-12-22.8-22.1-40.3-30.2c-17.5-8.2-37.5-12.2-59.9-12.2c-18.4,0-35.7,3-52,9c-16.3,6-30.4,14.7-42.5,26.1
		C59.4,65.8,50.1,79.6,43.6,95.6c-6.5,16.1-9.7,34.3-9.7,54.6c0,12.5,1.3,24.4,3.9,35.5c2.6,11.1,6.5,21.6,11.6,31.4
		c5.2,9.8,11.4,18.7,18.7,26.6c6.1,6.5,12.6,12,19.6,16.7c2-11.7,6.1-22.5,12.5-32.3C102.9,224,106,220.1,109.4,216.4z"/>
	<path fill="#DCAB38" d="M253.9,250.1c-2.2,2.1-4.4,4.1-6.9,6c3.1,4.7,6,10,8.6,15.8c4.3,8.8,8.4,15.1,12.1,19
		c3.7,3.9,9.1,5.8,16.3,5.8c7.8,0,14.4-3.2,19.6-9.7c5.2-6.5,7.9-13.7,7.9-21.7c0-8.8-2.1-17.8-6.3-27.1
		c-4.2-9.3-10.8-18.1-19.9-26.5c-1.7-1.6-3.6-3.1-5.5-4.6c-1.1,4.9-2.8,10.1-5.3,15.5C270.1,231.9,263.3,241.1,253.9,250.1z"/>
	<path fill="#DCAB38" d="M316.6,380.4c-5.5-11.6-13.2-21.2-23.1-28.8c-9.9-7.6-21.8-14-35.9-19.4c-14.1-5.3-29.8-10.2-47.1-14.6
		c-13.8-3.8-23.8-6.7-29.8-8.7c-6-2-12-4.7-17.8-8.2c-5.9-3.5-10.5-7.7-13.9-12.5c-1.9-2.7-3.2-5.7-4-8.9
		c-6.1-0.6-11.9-1.5-17.4-2.7c-12-2.5-22.8-6.5-32.6-11.8c-2.5-1.4-4.9-2.8-7.3-4.4c-0.9,5.4-1.4,10.9-1.4,16.7
		c0,19.3,4.4,35.4,13.1,48.4c8.7,13,20.6,23.2,35.5,30.7c14.9,7.5,33.4,14.1,55.5,19.7c16.5,4.1,29.7,8,39.6,11.6
		c9.9,3.6,17.9,8.9,24.1,15.8c6.2,6.9,9.3,15.9,9.3,27c0,14-5.8,25.6-17.3,35s-26.5,14-45,14c-13.4,0-24.3-2.3-32.5-6.9
		c-8.3-4.6-14.7-10.5-19.2-17.6c-4.5-7.1-8.8-16-12.7-26.6c-3.2-9-7.1-15.7-11.6-20.3c-4.5-4.6-10.1-6.8-16.7-6.8
		c-8.1,0-14.8,2.9-20,8.8c-5.2,5.8-7.9,12.9-7.9,21.1c0,14.1,4.4,28.7,13.1,43.6c8.7,15,20.1,26.9,34.1,35.9
		c19.7,12.4,44.8,18.7,75.1,18.7c25.3,0,47.2-4.6,65.7-13.7c18.5-9.1,32.5-21.7,42.1-37.8c9.6-16.1,14.4-34.2,14.4-54.4
		C324.9,406.3,322.1,392,316.6,380.4z"/>
	<path fill="#DCAB38" d="M125.5,230.2c11,6.4,23.8,9.6,38.4,9.6c9.1-5.3,20.3-8,33.8-8c0.9,0,1.8,0,2.7,0c1.7-0.9,3.4-1.9,5-3
		c11.2-7.3,19.6-18,25.2-32.1c1.3-3.7,2.8-6.9,4.5-9.8c-10-2.1-21.1-3.2-33.2-3.2c-23.6,0-44.2,3.8-61.7,11.5
		c-12.3,5.4-22.6,12.5-30.8,21.2C114,222,119.4,226.6,125.5,230.2z"/>
	<path fill="#820000" d="M205.4,228.9c-1.6,1.1-3.3,2-5,3c16,0.3,27.7,3.9,35.1,10.6c4.2,3.8,8,8.3,11.6,13.6c2.4-1.9,4.7-3.9,6.9-6
		c9.3-9,16.2-18.2,20.5-27.6c2.5-5.4,4.3-10.5,5.3-15.5c-8.1-6.3-17.7-11.5-28.8-15.7c-4.9-1.8-10.2-3.3-15.8-4.5
		c-1.7,2.9-3.2,6.2-4.5,9.8C225,210.9,216.6,221.6,205.4,228.9z"/>
	<path fill="#DCAB38" d="M127.6,276.7c5.5,1.2,11.3,2,17.4,2.7c-0.7-2.6-1-5.4-1-8.4c0-10.8,4.9-20,14.8-27.7
		c1.6-1.3,3.4-2.4,5.2-3.5c-14.7-0.1-27.5-3.3-38.4-9.6c-6.2-3.6-11.5-8.2-16.1-13.8c-3.4,3.6-6.5,7.5-9.3,11.8
		c-6.3,9.8-10.5,20.6-12.5,32.3c2.4,1.6,4.8,3.1,7.3,4.4C104.8,270.3,115.6,274.2,127.6,276.7z"/>
</g>
<text transform="matrix(0.9518 -0.3068 0.3068 0.9518 337.957 425.4941)"><tspan x="0" y="0" font-family="'MonotypeCorsiva'" font-size="46.2831">“The future of </tspan><tspan x="0" y="55.5" font-family="'MonotypeCorsiva'" font-size="46.2831" letter-spacing="5">								</tspan><tspan x="124.1" y="55.5" font-family="'MonotypeCorsiva'" font-size="46.2831">private security”</tspan></text>
</svg>
